<svg xmlns="http://www.w3.org/2000/svg" viewBox="0 0 100 100">
  <defs>
    <clipPath id="ballClip">
      <circle cx="50" cy="50" r="46"/>
    </clipPath>
  </defs>

  <circle cx="50" cy="50" r="46" fill="#f8f9fa"/>

  <g clip-path="url(#ballClip)">
    <line x1="50" y1="25" x2="50" y2="0" stroke="#212529" stroke-width="4"/>
    <line x1="74" y1="42" x2="100" y2="33" stroke="#212529" stroke-width="4"/>
    <line x1="65" y1="70" x2="85" y2="100" stroke="#212529" stroke-width="4"/>
    <line x1="35" y1="70" x2="15" y2="100" stroke="#212529" stroke-width="4"/>
    <line x1="26" y1="42" x2="0" y2="33" stroke="#212529" stroke-width="4"/>
    
    <path d="M50 0 L65 8 L35 8 Z" fill="#212529"/>
    <path d="M100 33 L90 55 L75 20 Z" fill="#212529"/>
    <path d="M85 100 L95 75 L60 90 Z" fill="#212529"/>
    <path d="M15 100 L5 75 L40 90 Z" fill="#212529"/>
    <path d="M0 33 L10 55 L25 20 Z" fill="#212529"/>

    <polygon points="50,25 74,42 65,70 35,70 26,42" fill="#212529"/>
  </g>

  <circle cx="50" cy="50" r="46" fill="none" stroke="#212529" stroke-width="4"/>
  
  <text x="50" y="65" font-family="Arial, sans-serif" font-size="48" font-weight="900" fill="#28a745" stroke="#f8f9fa" stroke-width="2.5" text-anchor="middle">11</text>
</svg>
